<svg width="148" height="155" viewBox="0 0 148 155" fill="none" xmlns="http://www.w3.org/2000/svg">
<path d="M31.65 128.8C28.1833 128.8 25.3333 127.683 23.1 125.45C20.8667 123.217 19.75 120.383 19.75 116.95V84.35C19.75 83.3167 19.45 82.35 18.85 81.45L14.6 75.5C14.2 74.9 14 74.2333 14 73.5C14 72.7667 14.2 72.1 14.6 71.5L18.85 65.55C19.45 64.5833 19.75 63.6167 19.75 62.65V30.1C19.75 26.6333 20.8667 23.7833 23.1 21.55C25.3333 19.3167 28.1833 18.2 31.65 18.2H37.6V25.25H31.95C30.55 25.25 29.3333 25.75 28.3 26.75C27.3 27.75 26.8 28.9833 26.8 30.45V62.65C26.8 65.2167 26.05 67.55 24.55 69.65L21.8 73.5L24.55 77.35C26.05 79.45 26.8 81.7833 26.8 84.35V116.65C26.8 118.05 27.3 119.25 28.3 120.25C29.3333 121.25 30.55 121.75 31.95 121.75H37.6V128.8H31.65ZM112.351 128.8H106.401V121.75H112.001C113.467 121.75 114.701 121.25 115.701 120.25C116.701 119.25 117.201 118.05 117.201 116.65V84.35C117.201 81.7833 117.934 79.45 119.401 77.35L122.201 73.5L119.401 69.65C117.934 67.55 117.201 65.2167 117.201 62.65V30.45C117.201 28.9833 116.701 27.75 115.701 26.75C114.701 25.75 113.467 25.25 112.001 25.25H106.401V18.2H112.351C115.817 18.2 118.667 19.3167 120.901 21.55C123.134 23.7833 124.251 26.6333 124.251 30.1V62.65C124.251 63.6167 124.551 64.5833 125.151 65.55L129.401 71.5C129.834 72.1 130.051 72.7667 130.051 73.5C130.051 74.2333 129.834 74.9 129.401 75.5L125.151 81.45C124.551 82.35 124.251 83.3167 124.251 84.35V116.95C124.251 120.383 123.134 123.217 120.901 125.45C118.667 127.683 115.817 128.8 112.351 128.8Z" fill="#29BCF0" fill-opacity="0.75"/>
<rect x="51.5" y="39.5" width="45" height="76" rx="22.5" stroke="#29BCF0" stroke-opacity="0.75" stroke-width="3"/>
<rect x="71" y="53" width="5" height="17" rx="2.5" fill="#29BCF0" fill-opacity="0.75"/>
</svg>
